# xmcd
#
# Track frame offsets:
# 183
# 22215
# 41433
#
# Disc length: 763 seconds
#
#
# Revision: 0
# Processed by: cddbd v1.5.1PL0 Copyright (c) Steve Scherf et al.
# Submitted via: FreeRIP 2.942 
#
DISCID=1f02f903
DTITLE=Willy DeVille - Miracle
DYEAR=1987
DGENRE=Pop
TTITLE0=Miracle
TTITLE1=I Call Your Name
TTITLE2=Could You Would You
EXTD=
EXTT0=
EXTT1=
EXTT2=
PLAYORDER=
